<?xml version="1.0" standalone="no"?>
<!DOCTYPE svg PUBLIC "-//W3C//DTD SVG 20010904//EN"
 "http://www.w3.org/TR/2001/REC-SVG-20010904/DTD/svg10.dtd">
<svg version="1.0" xmlns="http://www.w3.org/2000/svg"
 width="260.000000pt" height="93.000000pt" viewBox="0 0 260.000000 93.000000"
 preserveAspectRatio="xMidYMid meet">

<g transform="translate(0.000000,93.000000) scale(0.100000,-0.100000)"
fill="#000000" stroke="none">
<path d="M549 829 c-20 -12 -43 -34 -52 -49 -20 -33 -22 -115 -4 -147 46 -82
191 -98 247 -26 36 46 45 96 26 146 -32 86 -139 123 -217 76z m128 -77 c20
-27 16 -79 -9 -102 -28 -25 -48 -25 -82 1 -35 27 -35 71 0 105 28 29 67 27 91
-4z"/>
<path d="M899 834 c-56 -23 -69 -56 -69 -171 l0 -99 33 2 c17 1 35 3 40 3 4 1
7 39 7 86 0 72 3 88 21 106 20 20 51 19 74 -3 6 -5 12 -50 15 -100 l5 -91 38
-3 37 -4 0 101 c0 116 -12 148 -64 173 -42 20 -89 20 -137 0z"/>
<path d="M1223 830 c-60 -36 -83 -95 -63 -164 15 -56 53 -84 127 -96 81 -14
105 -6 101 34 -3 31 -4 31 -63 34 -42 2 -64 8 -73 20 -12 16 -5 17 80 22 l93
5 -4 40 c-5 57 -27 94 -66 111 -47 19 -94 18 -132 -6z m105 -62 c26 -26 13
-38 -38 -38 -52 0 -60 8 -34 34 18 19 55 21 72 4z"/>
<path d="M186 778 c-10 -39 -7 -47 27 -64 44 -23 77 -54 77 -75 0 -11 -15 -22
-47 -33 -68 -23 -93 -50 -93 -101 0 -53 31 -87 95 -105 32 -9 45 -18 45 -30 0
-20 -58 -75 -89 -85 -23 -7 -26 -21 -11 -60 l10 -27 63 34 c72 40 107 85 107
137 -1 48 -25 77 -85 100 -68 26 -69 45 -6 66 28 9 60 28 71 42 49 62 6 156
-94 204 -51 25 -62 24 -70 -3z"/>
<path d="M1359 518 c-4 -12 -5 -258 -1 -315 l5 -73 38 0 39 0 0 50 0 50 38 0
c48 0 62 -14 62 -61 0 -41 10 -49 59 -41 l33 5 -5 50 c-3 41 -11 56 -36 79
l-31 28 35 55 36 55 -48 0 c-47 0 -49 -1 -76 -50 -19 -33 -35 -50 -48 -50 -18
0 -19 8 -19 110 l0 110 -40 0 c-22 0 -40 -1 -41 -2z"/>
<path d="M565 400 c-30 -12 -64 -48 -70 -73 -3 -12 -5 -62 -3 -112 l3 -90 35
0 35 0 5 93 c4 78 8 96 24 108 25 18 37 18 61 0 16 -12 21 -31 25 -108 l5 -93
30 1 c17 1 33 2 38 3 4 1 7 41 7 91 0 84 1 90 25 106 23 15 27 15 50 0 22 -15
24 -23 27 -108 l3 -92 31 -2 c54 -3 57 4 52 110 -6 108 -20 139 -73 162 -44
18 -93 18 -129 -1 -26 -14 -33 -14 -62 0 -35 16 -87 19 -119 5z"/>
<path d="M1073 391 c-51 -24 -75 -67 -75 -133 0 -54 30 -109 70 -127 36 -17
87 -13 115 9 23 19 25 19 29 2 5 -16 28 -21 71 -13 14 2 8 172 -8 204 -34 70
-123 95 -202 58z m112 -76 c30 -30 32 -64 4 -99 -25 -31 -57 -33 -87 -6 -36
34 -24 102 21 120 32 13 36 12 62 -15z"/>
<path d="M1737 389 c-49 -26 -71 -75 -65 -141 8 -79 55 -115 154 -118 32 -2
65 -2 72 -1 13 1 17 60 5 62 -5 1 -32 2 -60 4 -50 2 -83 17 -83 36 0 5 41 9
90 9 l90 0 0 38 c0 104 -106 162 -203 111z m113 -68 c15 -30 14 -31 -40 -31
-34 0 -50 4 -50 13 0 38 71 52 90 18z"/>
<path d="M2065 255 c-16 -15 -25 -36 -25 -55 0 -35 38 -80 67 -80 10 0 28 7
40 15 19 13 22 13 27 -1 10 -26 26 -5 26 36 0 51 -16 85 -47 99 -37 17 -62 13
-88 -14z m85 -15 c22 -22 25 -42 10 -71 -12 -22 -59 -26 -78 -7 -20 20 -14 65
10 82 29 20 34 20 58 -4z"/>
<path d="M2264 268 c-32 -15 -44 -51 -44 -133 0 -60 3 -75 15 -75 11 0 15 11
15 39 0 39 0 39 29 28 38 -14 78 3 92 40 27 73 -38 135 -107 101z m66 -28 c23
-23 26 -49 8 -72 -22 -26 -47 -29 -68 -8 -27 27 -25 65 2 84 29 20 34 20 58
-4z"/>
<path d="M2426 259 c-25 -19 -26 -25 -26 -110 0 -53 4 -89 10 -89 6 0 10 18
10 41 0 35 2 40 18 34 43 -19 61 -17 86 8 34 34 34 80 1 112 -30 30 -64 32
-99 4z m92 -53 c4 -36 -14 -56 -49 -56 -35 0 -54 36 -39 74 17 47 82 34 88
-18z"/>
<path d="M67 242 c-35 -38 -10 -92 42 -92 34 0 51 17 51 51 0 53 -59 79 -93
41z"/>
<path d="M1994 149 c-8 -14 11 -33 25 -25 6 4 11 14 11 22 0 16 -26 19 -36 3z"/>
</g>
</svg>
